<svg height="480pt" viewBox="0 0 480.00792 480" width="480pt" xmlns="http://www.w3.org/2000/svg"><path d="m40 8.003906v432h432v32h-464v-464zm0 0" fill="#394d5c"/><path d="m168 440.003906h-96v-272h96zm0 0" fill="#db527d"/><path d="m264 440.003906h-96v-240h96zm0 0" fill="#36afad"/><path d="m360 440.003906h-96v-192h96zm0 0" fill="#ffd782"/><path d="m472 279.53125-11.3125-79.191406-22.632812 22.625-214.957032-214.960938-22.625 22.625 214.960938 214.960938-22.625 22.628906zm0 0" fill="#e9686a"/><path d="m472 432.003906h-104v-184c0-4.417968-3.582031-8-8-8h-88v-40c0-4.417968-3.582031-8-8-8h-88v-24c0-4.417968-3.582031-8-8-8h-96c-4.417969 0-8 3.582032-8 8v264h-16v-424c0-4.417968-3.582031-7.99999975-8-7.99999975h-32c-4.417969 0-8 3.58203175-8 7.99999975v464c0 4.417969 3.582031 8 8 8h464c4.417969 0 8-3.582031 8-8v-32c0-4.417968-3.582031-8-8-8zm-120-176v176h-80v-176zm-96-48v224h-80v-224zm-176-32h80v256h-80zm384 288h-448v-448h16v424c0 4.417969 3.582031 8 8 8h424zm0 0"/><path d="m385.214844 270.757812c.957031 2.875 3.457031 4.960938 6.457031 5.390626l79.199219 11.3125c.378906.046874.757812.070312 1.136718.070312 2.320313 0 4.523438-1.003906 6.042969-2.757812 1.519531-1.75 2.203125-4.074219 1.878907-6.371094l-11.3125-79.199219c-.425782-3.007813-2.515626-5.515625-5.398438-6.476563-2.886719-.957031-6.0625-.199218-8.203125 1.957032l-16.976563 16.96875-209.285156-209.304688c-3.125-3.121094-8.191406-3.121094-11.3125 0l-22.625 22.625c-3.125 3.125-3.125 8.1875 0 11.3125l209.304688 209.320313-16.96875 16.957031c-2.144532 2.144531-2.894532 5.316406-1.9375 8.195312zm-173.429688-240.128906 11.3125-11.3125 209.300782 209.304688c3.125 3.121094 8.191406 3.121094 11.3125 0l11.320312-11.3125 7.535156 52.800781-52.796875-7.546875 11.308594-11.320312c3.125-3.121094 3.125-8.1875 0-11.308594zm0 0"/></svg>